<svg width="1281" height="672" viewBox="0 0 1281 672" fill="none" xmlns="http://www.w3.org/2000/svg">
<path d="M80.6684 382.994C48.2911 383.601 18.5 339.97 18.5 339.97L58.2184 310.426C58.2184 310.426 115.952 274.852 142.601 295.38C142.601 295.38 160.923 321.176 217.91 321.176C274.897 321.176 398.18 295.38 413.722 310.426C429.264 325.472 439.626 349.155 413.722 340.518C387.819 331.881 186.918 339.424 163.559 346.532C140.2 353.64 105.08 384.223 123.841 369.101C142.601 353.979 108.299 382.475 80.6684 382.994Z" fill="#531887"/>
<path d="M546.104 231.38C554.504 232.1 561.824 234.38 568.064 238.22C574.304 241.82 577.424 247.34 577.424 254.78C577.424 260.3 574.784 264.74 569.504 268.1C564.464 271.22 558.344 272.78 551.144 272.78C544.184 272.78 539.384 270.98 536.744 267.38C534.104 263.78 532.784 260.06 532.784 256.22C532.784 249.02 533.504 243.02 534.944 238.22C536.624 233.42 540.344 231.14 546.104 231.38ZM574.904 390.86V401.3C574.904 410.66 575.144 419.54 575.624 427.94C576.344 436.1 577.184 444.38 578.144 452.78C577.904 455.18 576.104 457.7 572.744 460.34C569.384 462.74 566.384 463.94 563.744 463.94C559.184 463.94 554.504 463.1 549.704 461.42C545.144 459.5 542.384 457.22 541.424 454.58C539.984 446.9 539.264 440.06 539.264 434.06C539.264 414.38 538.664 392.3 537.464 367.82C536.504 346.22 536.024 331.1 536.024 322.46C536.024 318.14 538.184 314.42 542.504 311.3C546.824 308.18 551.384 306.62 556.184 306.62C563.144 306.62 567.944 308.18 570.584 311.3C573.464 314.42 574.904 319.34 574.904 326.06V390.86Z" fill="#531887"/>
<path d="M616.973 386.18C616.973 377.06 618.653 367.94 622.013 358.82C625.373 349.46 629.813 340.94 635.333 333.26C640.853 325.58 649.613 319.34 661.613 314.54C673.613 309.5 684.293 306.98 693.653 306.98C703.253 306.98 712.973 308.3 722.813 310.94C732.893 313.58 739.853 317.66 743.693 323.18C752.573 335.66 757.013 347.9 757.013 359.9C757.013 366.38 755.573 371.9 752.693 376.46C750.053 381.02 746.213 385.94 741.173 391.22C737.093 395.54 730.613 398.42 721.733 399.86C713.093 401.3 704.453 402.02 695.813 402.02C690.293 402.02 683.573 401.54 675.653 400.58C667.733 399.38 660.053 397.94 652.613 396.26C653.093 401.06 654.293 405.74 656.213 410.3C658.133 414.86 660.413 418.34 663.053 420.74C667.853 425.3 672.773 428.18 677.813 429.38C683.093 430.58 689.813 431.18 697.973 431.18C706.613 431.18 714.653 429.74 722.093 426.86C728.093 424.7 733.013 423.62 736.853 423.62C741.413 423.62 744.893 425.06 747.293 427.94C749.693 430.58 750.893 434.06 750.893 438.38C750.893 444.38 747.413 449.3 740.453 453.14C733.493 456.98 725.453 459.86 716.333 461.78C707.453 463.46 700.253 464.3 694.733 464.3C683.453 464.3 672.533 462.26 661.973 458.18C651.413 454.1 642.653 448.34 635.693 440.9C629.933 434.18 625.373 426.14 622.013 416.78C618.653 407.18 616.973 396.98 616.973 386.18ZM695.453 337.58C690.173 337.58 684.893 338.66 679.613 340.82C674.333 342.74 670.013 345.5 666.653 349.1C662.333 353.66 659.333 357.38 657.653 360.26C656.213 362.9 655.253 366.62 654.773 371.42C660.773 373.34 673.253 374.3 692.213 374.3C702.533 374.3 710.453 372.74 715.973 369.62C721.733 366.5 724.613 362.42 724.613 357.38C724.613 352.34 721.493 347.78 715.253 343.7C709.013 339.62 702.413 337.58 695.453 337.58Z" fill="#C3ACD0"/>
<path d="M1200.33 382.994C1232.71 383.601 1262.5 339.97 1262.5 339.97L1222.78 310.426C1222.78 310.426 1165.05 274.852 1138.4 295.38C1138.4 295.38 1120.08 321.176 1063.09 321.176C1006.1 321.176 882.82 295.38 867.278 310.426C851.736 325.472 841.374 349.155 867.278 340.518C893.181 331.881 1094.08 339.424 1117.44 346.532C1140.8 353.64 1175.92 384.223 1157.16 369.101C1138.4 353.979 1172.7 382.475 1200.33 382.994Z" fill="#C3ACD0"/>
</svg>
