<svg width="1301" height="275" viewBox="0 0 1301 275" fill="none" xmlns="http://www.w3.org/2000/svg">
<path d="M101.744 153.117C92.3692 153.319 83.7435 138.819 83.7435 138.819L95.2435 129.001C95.2435 129.001 111.96 117.179 119.676 124.001C119.676 124.001 124.98 132.574 141.48 132.574C157.98 132.574 193.676 124.001 198.176 129.001C202.676 134.001 205.676 141.872 198.176 139.001C190.676 136.131 132.507 138.638 125.744 141C118.98 143.362 108.812 153.525 114.244 148.5C119.676 143.475 109.744 152.945 101.744 153.117Z" fill="#531887"/>
<path d="M253.29 67.92C258.89 68.4 263.77 69.92 267.93 72.48C272.09 74.88 274.17 78.56 274.17 83.52C274.17 87.2 272.41 90.16 268.89 92.4C265.53 94.48 261.45 95.52 256.65 95.52C252.01 95.52 248.81 94.32 247.05 91.92C245.29 89.52 244.41 87.04 244.41 84.48C244.41 79.68 244.89 75.68 245.85 72.48C246.97 69.28 249.45 67.76 253.29 67.92ZM272.49 174.24V181.2C272.49 187.44 272.65 193.36 272.97 198.96C273.45 204.4 274.01 209.92 274.65 215.52C274.49 217.12 273.29 218.8 271.05 220.56C268.81 222.16 266.81 222.96 265.05 222.96C262.01 222.96 258.89 222.4 255.69 221.28C252.65 220 250.81 218.48 250.17 216.72C249.21 211.6 248.73 207.04 248.73 203.04C248.73 189.92 248.33 175.2 247.53 158.88C246.89 144.48 246.57 134.4 246.57 128.64C246.57 125.76 248.01 123.28 250.89 121.2C253.77 119.12 256.81 118.08 260.01 118.08C264.65 118.08 267.85 119.12 269.61 121.2C271.53 123.28 272.49 126.56 272.49 131.04V174.24Z" fill="#531887"/>
<path d="M426.536 215C424.536 211.267 423.269 207.133 422.736 202.6C422.203 197.933 421.936 191.533 421.936 183.4C421.936 175.667 420.869 168.933 418.736 163.2C416.603 157.467 412.203 154.6 405.536 154.6C403.003 154.6 400.469 155.4 397.936 157C395.536 158.467 393.736 160.333 392.536 162.6C390.669 166.2 389.403 170.133 388.736 174.4C388.069 178.533 387.736 183.333 387.736 188.8C387.736 192.267 387.936 195.8 388.336 199.4C388.336 200.467 388.403 202.2 388.536 204.6C388.803 206.867 388.936 208.933 388.936 210.8C388.936 218.8 386.136 222.8 380.536 222.8C373.203 222.8 369.336 218.933 368.936 211.2C368.936 205.733 369.003 202.8 369.136 202.4V193.8C369.136 189 368.936 184.333 368.536 179.8C368.136 175.267 367.669 171.867 367.136 169.6C365.936 165.2 364.336 161.8 362.336 159.4C360.469 157 357.469 155.8 353.336 155.8C347.469 155.8 342.736 158.333 339.136 163.4C336.603 167.4 334.936 172.267 334.136 178C333.336 185.333 332.736 191.133 332.336 195.4C332.069 199.533 331.936 204.333 331.936 209.8C331.936 213.667 331.269 216.8 329.936 219.2C328.736 221.6 326.403 222.8 322.936 222.8C320.403 222.8 317.736 222.133 314.936 220.8C312.269 219.333 310.936 217.4 310.936 215C310.936 212.467 311.203 209.933 311.736 207.4C312.936 199.8 313.536 186.2 313.536 166.6C313.536 163.4 312.736 160.333 311.136 157.4C309.669 154.333 307.869 152.8 305.736 152.8C305.203 152.8 304.203 153.067 302.736 153.6C301.403 154.133 300.403 154.4 299.736 154.4C298.003 154.4 296.403 153.6 294.936 152C293.603 150.4 292.936 149.067 292.936 148C292.936 144.667 294.536 141.867 297.736 139.6C301.069 137.2 304.536 136 308.136 136C313.069 136 317.269 137.533 320.736 140.6C324.203 143.667 326.869 147.933 328.736 153.4C331.803 148.067 335.936 143.8 341.136 140.6C346.336 137.267 352.136 135.6 358.536 135.6C362.536 135.6 365.736 136.133 368.136 137.2C370.669 138.133 372.736 139.533 374.336 141.4C375.936 143.133 378.003 145.8 380.536 149.4C383.869 145.133 388.136 141.8 393.336 139.4C398.669 137 404.136 135.8 409.736 135.8C416.403 135.8 422.403 138.533 427.736 144C433.069 149.333 436.669 155.533 438.536 162.6C439.469 166.2 439.936 173.133 439.936 183.4L440.736 195C441.403 201.933 443.669 206.133 447.536 207.6C452.069 208.933 454.336 210.333 454.336 211.8C454.336 215 453.536 217.333 451.936 218.8C450.736 219.6 449.069 220.467 446.936 221.4C444.803 222.333 443.136 222.8 441.936 222.8C434.736 222.8 429.603 220.2 426.536 215ZM545.3 171.8C545.3 177.933 543.767 183.133 540.7 187.4C537.633 191.533 533.567 195.2 528.5 198.4C521.567 202.133 513.5 204.067 504.3 204.2C503.767 205.8 503.5 207.467 503.5 209.2C503.5 210.8 504.367 212 506.1 212.8C507.967 213.467 511.233 214 515.9 214.4C519.767 214.667 524.1 215.533 528.9 217C533.833 218.333 537.7 219.867 540.5 221.6C543.967 224.133 546.367 226.867 547.7 229.8C549.167 232.733 549.9 236.4 549.9 240.8C549.9 246.533 547.233 251.333 541.9 255.2C536.7 259.2 530.567 262.133 523.5 264C516.433 265.867 510.233 266.8 504.9 266.8C498.5 266.8 493.033 266 488.5 264.4C484.1 262.933 479.9 260.867 475.9 258.2C473.1 256.2 470.9 253.667 469.3 250.6C467.7 247.533 466.9 244.333 466.9 241C466.9 237.667 467.967 234.467 470.1 231.4C472.367 228.333 475.1 225.667 478.3 223.4C481.5 221.267 484.5 219.8 487.3 219C486.233 217.667 485.433 216.533 484.9 215.6C484.5 214.533 484.3 213.333 484.3 212C484.3 207.467 485.433 203.667 487.7 200.6C481.3 198.467 476.233 194.667 472.5 189.2C468.9 183.733 467.1 177.333 467.1 170C467.1 165.2 468.233 160.867 470.5 157C472.767 153 475.9 149.2 479.9 145.6C486.7 139.467 496.1 136.4 508.1 136.4C509.7 136.4 511.9 136.667 514.7 137.2C517.5 137.733 520.233 138.467 522.9 139.4C527.167 137.533 532.167 135.6 537.9 133.6C543.633 131.6 547.5 130.6 549.5 130.6C552.567 130.6 554.833 131.133 556.3 132.2C557.9 133.133 558.7 135.267 558.7 138.6C558.7 141.667 556.9 143.867 553.3 145.2C549.833 146.533 544.567 147.8 537.5 149C542.7 155.267 545.3 162.867 545.3 171.8ZM503.7 187.8C511.433 187.8 517.033 186.2 520.5 183C524.1 179.8 525.9 175 525.9 168.6C525.9 158.067 519.7 152.8 507.3 152.8C502.5 152.8 498.7 153.333 495.9 154.4C493.233 155.467 491.033 157.267 489.3 159.8C486.9 163 485.7 167.333 485.7 172.8C485.7 177.067 487.433 180.667 490.9 183.6C494.5 186.4 498.767 187.8 503.7 187.8ZM485.7 242.4C485.7 244.667 487.767 246.6 491.9 248.2C496.167 249.933 500.7 250.8 505.5 250.8C510.833 250.8 516.3 249.8 521.9 247.8C527.633 245.933 530.5 243.4 530.5 240.2C530.5 235.533 526.367 232.533 518.1 231.2C515.167 230.667 510.9 229.667 505.3 228.2C504.633 228.067 503.833 227.867 502.9 227.6C502.1 227.333 501.233 227.067 500.3 226.8C497.367 227.867 494.167 230.067 490.7 233.4C487.367 236.867 485.7 239.867 485.7 242.4ZM745.175 96.8C745.175 98.1333 744.842 101.8 744.175 107.8C742.708 122.467 741.975 137.333 741.975 152.4C741.975 165.6 742.175 175.667 742.575 182.6C742.975 189.533 743.975 194.867 745.575 198.6C747.175 202.2 749.642 204 752.975 204C759.375 204 762.575 206.133 762.575 210.4C762.575 213.2 761.175 215.6 758.375 217.6C755.575 219.467 752.508 220.4 749.175 220.4C745.175 220.4 741.442 219.467 737.975 217.6C734.508 215.733 731.775 212.867 729.775 209C726.975 213.133 722.908 216.467 717.575 219C712.375 221.4 707.308 222.6 702.375 222.6C694.775 222.6 688.042 221 682.175 217.8C676.308 214.6 671.775 210.267 668.575 204.8C665.375 199.2 663.775 193.067 663.775 186.4C663.775 180 664.508 173.867 665.975 168C667.575 162 669.708 157.067 672.375 153.2C675.975 148.133 680.775 144.133 686.775 141.2C692.908 138.133 698.908 136.6 704.775 136.6C708.375 136.6 711.775 137.333 714.975 138.8C718.175 140.133 720.975 141.8 723.375 143.8C723.375 134.867 723.308 129.267 723.175 127V122.8C723.175 110.4 723.975 101.333 725.575 95.6C727.042 90 730.575 87.2 736.175 87.2C739.242 87.2 741.508 87.8667 742.975 89.2C744.442 90.5333 745.175 93.0667 745.175 96.8ZM683.575 186C683.575 192.133 685.308 197.067 688.775 200.8C692.375 204.533 696.642 206.4 701.575 206.4C708.642 206.4 713.842 204.2 717.175 199.8C720.642 195.4 722.375 189.733 722.375 182.8L722.175 163C716.975 157.267 711.575 154.4 705.975 154.4C702.108 154.4 698.442 155.4 694.975 157.4C691.642 159.267 688.975 162.133 686.975 166C684.708 170.4 683.575 177.067 683.575 186ZM785.927 93.6C790.593 94 794.66 95.2667 798.127 97.4C801.593 99.4 803.327 102.467 803.327 106.6C803.327 109.667 801.86 112.133 798.927 114C796.127 115.733 792.727 116.6 788.727 116.6C784.86 116.6 782.193 115.6 780.727 113.6C779.26 111.6 778.527 109.533 778.527 107.4C778.527 103.4 778.927 100.067 779.727 97.4C780.66 94.7333 782.727 93.4667 785.927 93.6ZM801.927 182.2V188C801.927 193.2 802.06 198.133 802.327 202.8C802.727 207.333 803.193 211.933 803.727 216.6C803.593 217.933 802.593 219.333 800.727 220.8C798.86 222.133 797.193 222.8 795.727 222.8C793.193 222.8 790.593 222.333 787.927 221.4C785.393 220.333 783.86 219.067 783.327 217.6C782.527 213.333 782.127 209.533 782.127 206.2C782.127 195.267 781.793 183 781.127 169.4C780.593 157.4 780.327 149 780.327 144.2C780.327 141.8 781.527 139.733 783.927 138C786.327 136.267 788.86 135.4 791.527 135.4C795.393 135.4 798.06 136.267 799.527 138C801.127 139.733 801.927 142.467 801.927 146.2V182.2ZM826.898 152.4C825.032 152.133 823.498 151.4 822.298 150.2C821.232 148.867 820.698 147.267 820.698 145.4C820.698 143 821.632 141 823.498 139.4C823.898 139 824.565 138.667 825.498 138.4C826.432 138 827.165 137.667 827.698 137.4C830.632 136.467 832.498 135.733 833.298 135.2C836.365 133.333 838.432 130.267 839.498 126C840.565 120.933 841.232 117.467 841.498 115.6C841.765 112.667 842.698 110.467 844.298 109C846.032 107.4 848.165 106.6 850.698 106.6C854.032 106.6 856.365 107.467 857.698 109.2C859.032 110.933 859.698 114.133 859.698 118.8C859.698 124.933 858.232 130.733 855.298 136.2C857.165 136.2 860.232 136.067 864.498 135.8C870.898 135.533 875.365 135.4 877.898 135.4C880.165 135.4 882.098 136 883.698 137.2C885.432 138.267 886.298 139.867 886.298 142C886.298 147.067 883.965 150.067 879.298 151C875.032 152.2 867.298 152.933 856.098 153.2C855.165 166.267 854.698 176.6 854.698 184.2C854.698 188.867 854.898 192.2 855.298 194.2C856.098 198.333 857.432 201.4 859.298 203.4C861.298 205.267 864.232 206.2 868.098 206.2C869.965 206.2 872.765 205.733 876.498 204.8C878.765 204.133 880.565 203.8 881.898 203.8C883.632 203.8 884.965 204.4 885.898 205.6C886.832 206.8 887.298 208.4 887.298 210.4C887.298 214 884.965 217 880.298 219.4C875.632 221.667 870.098 222.8 863.698 222.8C859.698 222.8 855.765 221.867 851.898 220C848.032 218 844.765 215.6 842.098 212.8C841.565 212.533 840.765 211.067 839.698 208.4C838.765 205.733 837.832 202.8 836.898 199.6C836.498 198 836.298 194.133 836.298 188C836.298 182.133 836.698 172 837.498 157.6L837.698 153.2C836.765 153.2 835.032 153.133 832.498 153C829.965 152.733 828.098 152.533 826.898 152.4ZM980.503 157.8C981.57 159.667 982.436 162.4 983.103 166C983.77 169.467 984.103 172.6 984.103 175.4C984.103 179 983.703 183 982.903 187.4C982.103 191.8 981.37 195.2 980.703 197.6C971.503 214.4 957.903 222.8 939.903 222.8C933.236 222.8 926.436 220.6 919.503 216.2C912.57 211.8 907.77 206.733 905.103 201C901.503 189.667 899.703 182.4 899.703 179.2C899.703 173.867 900.836 168.2 903.103 162.2C905.503 156.2 908.503 151 912.103 146.6C914.503 143.533 918.636 140.933 924.503 138.8C930.37 136.533 935.703 135.4 940.503 135.4C949.836 135.4 957.703 137.2 964.103 140.8C970.636 144.267 976.103 149.933 980.503 157.8ZM963.103 190C963.77 188.667 964.103 184.2 964.103 176.6C964.103 172.733 963.37 168.933 961.903 165.2C960.57 161.467 958.57 158.267 955.903 155.6C955.636 155.333 954.903 154.933 953.703 154.4C952.503 153.733 950.836 153.133 948.703 152.6C946.703 151.933 944.37 151.6 941.703 151.6C934.236 151.6 928.77 154.6 925.303 160.6C921.836 166.6 920.103 173.4 920.103 181C920.103 182.2 920.503 184.667 921.303 188.4C922.103 192.133 922.703 194.533 923.103 195.6C924.17 197.467 926.303 199.667 929.503 202.2C932.836 204.6 936.436 205.8 940.303 205.8C946.303 205.8 951.036 204.4 954.503 201.6C958.103 198.667 960.97 194.8 963.103 190ZM1031.07 214C1030.8 216.267 1029.87 218.267 1028.27 220C1026.67 221.733 1024.6 222.6 1022.07 222.6C1018.07 222.6 1015.13 221.867 1013.27 220.4C1011.4 218.8 1010.47 215.933 1010.47 211.8C1010.47 206.2 1010.8 200.067 1011.47 193.4C1012 185.667 1012.27 179.733 1012.27 175.6C1012.27 173.467 1012.13 170.8 1011.87 167.6C1011.6 164.667 1011.47 162.467 1011.47 161C1011.07 158.733 1010.13 156.933 1008.67 155.6C1007.33 154.267 1005.2 153.133 1002.27 152.2C1001.07 151.667 1000.07 150.8 999.266 149.6C998.466 148.267 998.066 147.067 998.066 146C998.066 142.933 999.266 140.6 1001.67 139C1004.07 137.4 1007 136.6 1010.47 136.6C1014.33 136.6 1017.67 137.933 1020.47 140.6C1023.27 143.267 1025.4 146.6 1026.87 150.6C1029.93 146.2 1033.67 142.667 1038.07 140C1042.6 137.333 1047 136 1051.27 136C1056.73 136 1061.33 136.933 1065.07 138.8C1068.93 140.533 1070.87 143.6 1070.87 148C1070.87 150.533 1069.73 153.2 1067.47 156C1065.33 158.667 1063.13 160 1060.87 160C1059.13 160 1057.07 159.2 1054.67 157.6C1053.73 156.933 1052.67 156.4 1051.47 156C1050.4 155.467 1049.27 155.2 1048.07 155.2C1045.93 155.2 1043.93 155.533 1042.07 156.2C1040.2 156.867 1038.93 157.667 1038.27 158.6C1036.13 161.933 1034.53 164.933 1033.47 167.6C1032.53 170.267 1032.07 173.133 1032.07 176.2C1032.07 178.467 1032 180.267 1031.87 181.6L1031.67 193L1031.87 200.6C1031.87 206.2 1031.6 210.667 1031.07 214Z" fill="#858585"/>
<path d="M568.463 179.6C568.463 174.533 569.396 169.467 571.263 164.4C573.129 159.2 575.596 154.467 578.663 150.2C581.729 145.933 586.596 142.467 593.263 139.8C599.929 137 605.863 135.6 611.063 135.6C616.396 135.6 621.796 136.333 627.263 137.8C632.863 139.267 636.729 141.533 638.863 144.6C643.796 151.533 646.263 158.333 646.263 165C646.263 168.6 645.463 171.667 643.863 174.2C642.396 176.733 640.263 179.467 637.463 182.4C635.196 184.8 631.596 186.4 626.663 187.2C621.863 188 617.063 188.4 612.263 188.4C609.196 188.4 605.463 188.133 601.063 187.6C596.663 186.933 592.396 186.133 588.263 185.2C588.529 187.867 589.196 190.467 590.263 193C591.329 195.533 592.596 197.467 594.063 198.8C596.729 201.333 599.463 202.933 602.263 203.6C605.196 204.267 608.929 204.6 613.463 204.6C618.263 204.6 622.729 203.8 626.863 202.2C630.196 201 632.929 200.4 635.063 200.4C637.596 200.4 639.529 201.2 640.863 202.8C642.196 204.267 642.863 206.2 642.863 208.6C642.863 211.933 640.929 214.667 637.063 216.8C633.196 218.933 628.729 220.533 623.663 221.6C618.729 222.533 614.729 223 611.663 223C605.396 223 599.329 221.867 593.463 219.6C587.596 217.333 582.729 214.133 578.863 210C575.663 206.267 573.129 201.8 571.263 196.6C569.396 191.267 568.463 185.6 568.463 179.6ZM612.063 152.6C609.129 152.6 606.196 153.2 603.263 154.4C600.329 155.467 597.929 157 596.063 159C593.663 161.533 591.996 163.6 591.063 165.2C590.263 166.667 589.729 168.733 589.463 171.4C592.796 172.467 599.729 173 610.263 173C615.996 173 620.396 172.133 623.463 170.4C626.663 168.667 628.263 166.4 628.263 163.6C628.263 160.8 626.529 158.267 623.063 156C619.596 153.733 615.929 152.6 612.063 152.6Z" fill="#C3ACD0"/>
<path d="M1198.74 121.883C1208.12 121.681 1216.74 136.181 1216.74 136.181L1205.24 145.999C1205.24 145.999 1188.53 157.821 1180.81 150.999C1180.81 150.999 1175.51 142.426 1159.01 142.426C1142.51 142.426 1106.81 150.999 1102.31 145.999C1097.81 140.999 1094.81 133.128 1102.31 135.999C1109.81 138.869 1167.98 136.362 1174.74 134C1181.51 131.638 1191.68 121.475 1186.24 126.5C1180.81 131.525 1190.74 122.055 1198.74 121.883Z" fill="#C3ACD0"/>
</svg>
